<?xml version="1.0" encoding="utf-8"?>
<!-- Generator: Adobe Illustrator 26.0.3, SVG Export Plug-In . SVG Version: 6.00 Build 0)  -->
<svg version="1.2" baseProfile="tiny" id="Ebene_1" xmlns="http://www.w3.org/2000/svg" xmlns:xlink="http://www.w3.org/1999/xlink"
	 x="0px" y="0px" viewBox="0 0 255.1 269.3" overflow="visible" xml:space="preserve">
<path d="M91.2,158.4c9.1,0,16.5-7.4,16.5-16.5v-28.3c0-22.1,18-40.1,40.1-40.1c1.2,0,2.4,0.1,3.5,0.2l-23.7-41l-40.1,69.4
	c1.2-0.1,2.3-0.2,3.5-0.2h9.8c-1,3.8-1.6,7.7-1.6,11.8v11.8h-8.3c-9.1,0-16.5,7.4-16.5,16.5C74.6,151,82,158.4,91.2,158.4z"/>
<path d="M184.2,130.5c-6.4,13.7-20.3,23.2-36.4,23.2H138c1-3.8,1.6-7.7,1.6-11.8v-11.8h8.3c9.1,0,16.5-7.4,16.5-16.5
	c0-9.1-7.4-16.5-16.5-16.5c-9.1,0-16.5,7.4-16.5,16.5l0,28.3c0,22.1-18,40.1-40.1,40.1c-16.1,0-30-9.5-36.4-23.2l-19.9,34.5h185.7
	L184.2,130.5z"/>
<path d="M159.3,209h-6.5c-3.6,0-6.5,2.9-6.5,6.5V235h6.5v-6.5h6.5v6.5h6.5v-19.5C165.8,211.9,162.9,209,159.3,209z M159.3,222h-6.5
	c0,0-0.1-1.4-0.1-3.2c0-1.8,0.1-3.2,0.1-3.2s1-0.1,3.2-0.1s3.2,0.1,3.2,0.1s0.1,1.1,0.1,3.2S159.3,222,159.3,222z"/>
<path d="M216,208.9h-13v26h6.5v-6.5h6.5c3.6,0,6.5-2.9,6.5-6.5v-6.5C222.5,211.9,219.6,208.9,216,208.9z M216,221.9
	c0,0-1.1,0.1-3.2,0.1c-2.1,0-3.2-0.1-3.2-0.1v-6.5c0,0,1.4-0.1,3.2-0.1c1.8,0,3.2,0.1,3.2,0.1s0.1,1,0.1,3.2S216,221.9,216,221.9z"
	/>
<path d="M32.9,215.5v13c0,3.6,2.9,6.5,6.5,6.5l13,0v-6.5h-13v-13h13V209h-13C35.8,209,32.9,211.9,32.9,215.5z"/>
<path d="M97.4,209h-6.5v19.5c0,3.6,2.9,6.5,6.5,6.5l10.4,0v-6.5H97.4V209z"/>
</svg>
