<?xml version="1.0" encoding="utf-8"?>
<!-- Generator: Adobe Illustrator 26.0.3, SVG Export Plug-In . SVG Version: 6.00 Build 0)  -->
<svg version="1.2" baseProfile="tiny" id="Ebene_1" xmlns="http://www.w3.org/2000/svg" xmlns:xlink="http://www.w3.org/1999/xlink"
	 x="0px" y="0px" viewBox="0 0 32 32" overflow="visible" xml:space="preserve">
<path fill="#1D1D1B" d="M11.3,14.2h1.1c-0.1,0.5-0.2,1-0.2,1.5v1.5h-0.9c-1.2,0-2.1,1-2.1,2.1c0,1.2,1,2.1,2.1,2.1s2.1-1,2.1-2.1
	v-3.7c0-2.9,2.3-5.2,5.2-5.2c0.2,0,0.3,0,0.5,0L16,5.2l-5.2,9C11,14.2,11.1,14.2,11.3,14.2z"/>
<path fill="#1D1D1B" d="M23.3,17.9c-0.8,1.8-2.6,3-4.7,3h-1.1c0.1-0.5,0.2-1,0.2-1.5v-1.5h0.9c1.2,0,2.1-1,2.1-2.1
	c0-1.2-1-2.1-2.1-2.1c-1.2,0-2.1,1-2.1,2.1l0,3.7c0,2.9-2.3,5.2-5.2,5.2c-2.1,0-3.9-1.2-4.7-3L4,26h24L23.3,17.9z"/>
</svg>
