<?xml version="1.0" encoding="utf-8"?>
<!-- Generator: Adobe Illustrator 26.0.3, SVG Export Plug-In . SVG Version: 6.00 Build 0)  -->
<svg version="1.2" baseProfile="tiny" id="Ebene_1" xmlns="http://www.w3.org/2000/svg" xmlns:xlink="http://www.w3.org/1999/xlink"
	 x="0px" y="0px" viewBox="0 0 255.1 255.1" overflow="visible" xml:space="preserve">
<path fill="#1D1D1B" d="M91.1,172.5c9.1,0,16.5-7.4,16.5-16.5v-28.3c0-22.1,18-40.1,40.1-40.1c1.2,0,2.4,0.1,3.5,0.2l-23.7-41
	l-40,69.3c1.2-0.1,2.3-0.2,3.5-0.2h9.8c-1,3.8-1.6,7.7-1.6,11.8v11.8h-8.2c-9.1,0-16.5,7.4-16.5,16.5
	C74.6,165.1,82,172.5,91.1,172.5z"/>
<path fill="#1D1D1B" d="M184.1,144.6c-6.4,13.7-20.3,23.2-36.4,23.2h-9.8c1-3.8,1.6-7.7,1.6-11.8v-11.8h8.2
	c9.1,0,16.5-7.4,16.5-16.5c0-9.1-7.4-16.5-16.5-16.5c-9.1,0-16.5,7.4-16.5,16.5l0,28.3c0,22.1-18,40.1-40.1,40.1
	c-16.1,0-30-9.5-36.4-23.2l-19.9,34.5h185.6L184.1,144.6z"/>
</svg>
