<?xml version="1.0" encoding="utf-8"?>
<!-- Generator: Adobe Illustrator 26.0.3, SVG Export Plug-In . SVG Version: 6.00 Build 0)  -->
<svg version="1.2" baseProfile="tiny" id="Ebene_1" xmlns="http://www.w3.org/2000/svg" xmlns:xlink="http://www.w3.org/1999/xlink"
	 x="0px" y="0px" viewBox="0 0 16 16" overflow="visible" xml:space="preserve">
<g>
	<path d="M10.5,1.8c-1.8,0-3.4,1-4.3,2.5H6H5.5c-2.7,0-4.9,2.2-4.9,4.9s2.2,4.9,4.9,4.9c1.8,0,3.4-1,4.3-2.5H10h0.5
		c2.7,0,4.9-2.2,4.9-4.9C15.4,4,13.2,1.8,10.5,1.8L10.5,1.8z"/>
</g>
<path fill="#F0F2F4" d="M10.5,10.3H10V8.2h0.5c0.8,0,1.4-0.7,1.4-1.4c0-0.8-0.7-1.4-1.4-1.4C9.7,5.3,9,6,9,6.8l0,2.5
	c0,1.9-1.6,3.5-3.5,3.5S2,11.2,2,9.2s1.6-3.5,3.5-3.5H6v2.1H5.5c-0.8,0-1.4,0.7-1.4,1.4c0,0.8,0.7,1.4,1.4,1.4S7,10,7,9.2V6.8
	c0-1.9,1.6-3.5,3.5-3.5S14,4.8,14,6.8S12.4,10.3,10.5,10.3z"/>
</svg>
